<?xml version="1.0" encoding="UTF-8"?>
<svg width="150px" height="27px" viewBox="0 0 150 27" version="1.1" xmlns="http://www.w3.org/2000/svg" xmlns:xlink="http://www.w3.org/1999/xlink">
    <!-- Generator: Sketch 64 (93537) - https://sketch.com -->
    <title>Fill 29 Copy 5</title>
    <desc>Created with Sketch.</desc>
    <g id="Page-1" stroke="none" stroke-width="1" fill="none" fill-rule="evenodd">
        <g id="HOME" transform="translate(-685.000000, -2729.000000)" fill="#FFB900">
            <path d="M804.514886,2753.53845 C804.481886,2753.54545 804.453886,2753.55345 804.422886,2753.56045 C804.568886,2753.42845 804.634886,2753.38145 804.514886,2753.53845 L804.514886,2753.53845 Z M802.3105,2753.519 C802.3185,2753.506 802.3205,2753.496 802.3305,2753.481 L802.6895,2753.507 C802.5545,2753.508 802.4275,2753.512 802.3105,2753.519 L802.3105,2753.519 Z M790.378,2753.47807 C790.465,2753.48807 790.544,2753.50507 790.622,2753.52107 C790.468,2753.52607 790.399,2753.50907 790.378,2753.47807 L790.378,2753.47807 Z M776,2754.5795 C776.339982,2754.5265 776.67815,2754.4735 777,2754.4205 C776.700816,2754.4845 776.377153,2754.5425 776,2754.5795 L776,2754.5795 Z M771.846934,2754.68605 C770.591485,2754.23367 772.146984,2754.2221 771.321845,2753.5826 L770.427775,2754.05619 L770.849468,2754.12178 C770.713127,2754.76515 769.465788,2754.05812 769.578307,2754.84328 C768.670046,2754.23946 768.400405,2754.60792 767.401419,2754.04269 C767.164724,2754.3118 767.531678,2754.31952 767.813482,2754.36293 C767.307146,2754.33399 767.27927,2755.09696 766.61632,2754.6359 C766.279777,2754.53269 766.511911,2755.18184 767.106437,2755.17316 C766.598581,2755.14422 766.112519,2755.27251 765.550431,2755.18473 L766.124683,2755.68534 L765.531678,2755.69498 L766.030917,2755.97664 C764.897111,2756.0567 763.597567,2755.95445 763,2755.29855 C763.979726,2754.78637 765.613279,2754.99085 766.180436,2754.15844 C765.963001,2753.91923 765.395844,2754.75261 765.109985,2754.04269 L764.811455,2754.50761 C764.465788,2754.65808 763.668018,2754.84135 763.598581,2754.37064 C764.33705,2754.10442 764.649772,2753.7948 764.980233,2753.48035 L764.994425,2753.87486 C765.20071,2752.76947 766.102382,2754.19895 766.097821,2753.00579 C766.12519,2753.00386 766.151546,2753.00193 766.178409,2753 C766.312722,2753.14758 766.494678,2753.16205 766.681196,2753.14372 C766.668525,2753.245 766.594019,2753.34821 766.574759,2753.40126 C766.901166,2753.57006 767.198175,2753.55752 767.485048,2753.47456 C767.494171,2753.59321 767.487076,2753.74464 767.457679,2753.94141 C768.401926,2754.02436 769.060821,2753.37425 769.903193,2753.15722 C770.16219,2753.34242 770.565129,2753.43502 770.359858,2753.58549 C770.778003,2753.64915 771.083122,2753.49675 771.359858,2753.30384 C771.687278,2754.02919 772.317283,2754.2385 773,2754.30216 C772.737962,2754.51822 772.457679,2754.72753 771.846934,2754.68605 L771.846934,2754.68605 Z M747.015738,2754.99245 L745.683618,2754.79079 C745.909731,2754.76133 745.937867,2754.66767 746.045807,2754.60045 C745.127545,2754.9003 744.794004,2754.52115 744.1039,2755 C743.665999,2754.80665 744.784284,2754.68127 744.305458,2754.61178 C744.568403,2754.56118 744.821628,2754.34517 745.025232,2754.11329 C745.006304,2754.19411 744.987888,2754.26888 744.970494,2754.32855 L745.061042,2754.07326 C745.156705,2753.95997 745.243159,2753.84517 745.305059,2753.7432 C745.231905,2753.73112 745.167447,2753.72508 745.108106,2753.7213 C745.160285,2753.45921 745.214512,2753.17221 745.270272,2752.90483 L745.619161,2752.7855 C745.517359,2752.80967 745.401745,2752.821 745.287666,2752.821 C745.333195,2752.6065 745.379748,2752.41314 745.4263,2752.27039 C745.894895,2752.26737 746.284709,2752.34592 746.78451,2752 C746.779905,2752.71979 747.032108,2752.83006 746.78451,2753.24169 C746.734888,2753.23414 746.711356,2753.2213 746.697543,2753.20468 C746.420786,2753.59441 745.829926,2754.01737 745.371563,2754.11178 C746.989648,2754.34819 746.572721,2754.09668 747.992318,2754.26888 C748.116629,2754.68505 746.686289,2754.71299 747.015738,2754.99245 L747.015738,2754.99245 Z M743,2754.75672 C743.713277,2754.20568 743.397746,2754.39447 744.875408,2754 C745.139831,2754.3914 744.956512,2754.47429 744.577653,2754.82579 C744.642093,2754.84574 744.683201,2754.85035 744.739863,2754.86493 C744.545434,2754.92172 744.298787,2754.9693 743.957702,2755 L743,2754.75672 Z M743.436,2754.5345 C743.458,2754.5095 743.478,2754.4875 743.499,2754.4655 C743.534,2754.4865 743.558,2754.5085 743.564,2754.5295 C743.515,2754.5365 743.482,2754.5295 743.436,2754.5345 L743.436,2754.5345 Z M739.256386,2752.75325 C738.879518,2753.48237 739.230361,2753.48701 738.431807,2754 C738.148916,2753.68646 737.950843,2753.22635 737.908434,2752.78664 C737.622651,2753.23377 736.865542,2753.40909 736.033253,2753.37662 L736.390361,2753.13544 C736.24,2753.11132 736.113253,2753.1141 736,2753.12987 C736.009157,2753.07607 736.018313,2753.01763 736.026024,2752.94898 L736.521928,2752.63265 C736.937831,2752.66327 737.356627,2752.70594 737.779277,2752.76902 C737.781205,2752.86642 737.778313,2752.94434 737.821205,2752.7885 C737.815904,2752.782 737.812048,2752.77737 737.807711,2752.7718 C737.841446,2752.77737 737.874699,2752.78015 737.908434,2752.78571 C737.906024,2752.7616 737.903133,2752.73748 737.901687,2752.71429 C738.32,2752.84972 738.172048,2752.48423 738.257831,2752.32653 C738.57494,2752.39889 738.919518,2752.38312 738.906024,2752.74768 C739.110843,2752.47681 739.524819,2752.23933 739.815904,2752 L740,2752.47124 L739.256386,2752.75325 Z M735,2753.6365 L735.214612,2753.0775 C735.447489,2753.1005 735.73242,2753.3835 736,2753.5865 C735.702283,2753.6915 735.469406,2753.8225 735.231963,2753.9225 C735.290411,2753.8205 735.193607,2753.7585 735,2753.6365 L735,2753.6365 Z M720,2750.7695 L720.002912,2750.7625 C720.06043,2750.7285 720.10921,2750.6835 720.152166,2750.6305 C720.669094,2750.4625 720.840917,2750.2445 720.714962,2750.0455 L720.977794,2750.0375 L722,2750.9625 L721.170732,2750.9495 C720.753549,2750.8785 720.348016,2750.8075 720,2750.7695 L720,2750.7695 Z M715.999009,2750.841 C715.999009,2750.841 716.045083,2750.738 716.172901,2750.699 C714.998761,2750.702 714.707456,2750.73 714,2750.789 C714.022294,2750.575 714.070597,2750.379 714.165717,2750.205 L714.700025,2750.19 L714.847907,2750.338 L715.097597,2750.178 L715.738172,2750.159 C715.847411,2750.365 715.733713,2750.53 715.733713,2750.617 C716.111964,2750.458 716.544464,2750.425 717,2750.45 C716.674511,2750.569 716.340847,2750.698 715.999009,2750.841 L715.999009,2750.841 Z M698.083727,2747.72836 C698.081353,2747.71136 698.081353,2747.69836 698.078188,2747.68236 L698.039417,2747.74336 C698.031504,2747.74536 698.022009,2747.74836 698.014888,2747.75136 C697.984029,2747.64036 698.00381,2747.55736 698.049703,2747.49036 C698.038625,2747.33636 698.082145,2747.21436 698.338511,2747.25736 L698.288662,2747.33336 C698.380448,2747.30836 698.489641,2747.29836 698.603581,2747.29436 C698.658969,2747.34636 698.76658,2747.40036 699,2747.45436 C698.787944,2747.57436 698.347215,2747.64636 698.083727,2747.72836 L698.083727,2747.72836 Z M697.497323,2742.7845 C697.316323,2742.5505 696.963323,2742.2365 697.279323,2742.2155 L697.847323,2742.4825 C697.753323,2742.6045 697.642323,2742.7105 697.497323,2742.7845 L697.497323,2742.7845 Z M735,2730.33476 C734.034827,2730.50676 734.287274,2731.04276 733.436747,2730.97276 C733.389307,2730.45276 732.747176,2730.94876 732.217432,2730.98176 L732.591303,2730.61976 L732,2730.42876 C732.623494,2729.83076 734.63573,2729.96376 735,2730.33476 L735,2730.33476 Z M734,2731.8555 C733.364871,2731.5385 732.152693,2731.8555 732,2731.1855 C732.593911,2731.1605 733.180328,2731.1485 733.761124,2731.1445 C733.726464,2731.1545 733.68993,2731.1655 733.665574,2731.1705 C733.777049,2731.2085 733.946604,2731.3565 734,2731.8555 L734,2731.8555 Z M741,2731.12785 C740.968804,2731.32785 740.830156,2731.51185 740.857192,2731.63185 C740.222877,2731.78985 739.592721,2731.92985 739,2731.88785 C739.618371,2731.59185 740.036395,2730.97785 741,2731.12785 L741,2731.12785 Z M743.950311,2731.429 C743.404555,2731.51 742.842236,2731.59 742.23354,2731.666 C742.158178,2731.597 742.077847,2731.547 742,2731.489 C742.706418,2731.397 743.473292,2731.377 744,2731.334 L743.950311,2731.429 Z M745,2731.34853 C744.35913,2731.45353 743.693913,2731.55453 743,2731.65353 C744.237391,2731.36953 744.602609,2731.33653 745,2731.34853 L745,2731.34853 Z M753.486954,2731.17885 C753.790717,2731.28385 753.93738,2731.36485 754,2731.43585 C753.411151,2731.71585 752.79978,2731.95185 752,2731.75285 C752.379017,2731.48685 752.644878,2731.12385 753.486954,2731.17885 L753.486954,2731.17885 Z M755.257212,2731 C756.023983,2731.37331 756.459854,2731.37718 757,2731.45745 C756.924227,2731.54739 756.883907,2731.7089 756.903372,2732 C756.409107,2731.30851 755.069517,2732.27176 755,2731.37621 C755.187,2731.32979 755.301703,2731.22921 755.257212,2731 L755.257212,2731 Z M760.609878,2730.59658 L760.071827,2730.22982 L760.627924,2730.22346 L760.160157,2730.01712 C761.222486,2729.95846 762.440104,2730.03337 763,2730.5139 C762.082037,2730.88913 760.551466,2730.73932 760.020064,2731.34846 C760.223792,2731.52371 760.755194,2730.91387 761.022557,2731.43397 L761.302268,2731.09336 C761.626143,2730.98241 762.374095,2730.84885 762.439155,2731.1937 C762.217856,2731.25589 762.037398,2731.32161 761.884483,2731.38945 L761.908227,2731.24034 L761.804227,2731.42902 C761.426214,2731.60992 761.212988,2731.80567 760.928529,2732 C760.897186,2731.97315 760.880565,2731.9152 760.888638,2731.79436 L761.040128,2731.64172 L759.021845,2731.4587 L759,2730.97817 C759.142467,2730.88489 759.303455,2730.83189 759.611184,2730.99937 C759.926511,2731.07428 759.709486,2730.5987 759.15244,2730.60576 C759.62828,2730.62626 760.083699,2730.53298 760.609878,2730.59658 L760.609878,2730.59658 Z M763.736683,2731.33148 C763.754683,2731.46248 763.683683,2731.58148 763.423683,2731.66248 C763.354683,2731.67448 763.303683,2731.66748 763.260683,2731.65148 C763.276683,2731.63348 763.276683,2731.62148 763.296683,2731.60248 C763.192683,2731.45048 763.393683,2731.34948 763.736683,2731.33148 L763.736683,2731.33148 Z M768.42,2731.527 C768.495,2731.492 768.551,2731.445 768.588,2731.387 L768.644,2731.58 C768.549,2731.591 768.457,2731.601 768.356,2731.613 C768.378,2731.585 768.394,2731.556 768.42,2731.527 L768.42,2731.527 Z M779,2730.1795 C778.950886,2730.3745 778.900162,2730.5955 778.848633,2730.8205 C778.620777,2730.8075 778.352663,2730.7865 778.012087,2730.7515 C777.907418,2730.4575 778.503225,2730.3105 779,2730.1795 L779,2730.1795 Z M778.7235,2730.44797 C778.6165,2730.50997 778.4795,2730.55397 778.2765,2730.55197 C778.4415,2730.51697 778.5965,2730.48297 778.7235,2730.44797 L778.7235,2730.44797 Z M781,2730.183 C780.981398,2730.201 780.959077,2730.22 780.941715,2730.236 C780.637889,2730.291 780.541161,2730.382 780.332824,2730.452 C780.486597,2730.425 780.619288,2730.411 780.76066,2730.391 C780.472956,2730.618 780.327863,2730.592 779.152244,2730.956 L779.132402,2730.956 C778.881901,2730.521 779.010872,2730.368 779.318418,2730.044 L781,2730.183 Z M788.590411,2731.2185 C788.735616,2731.2805 788.872603,2731.3465 789,2731.4165 L787.547945,2731.7685 C787.353425,2731.7555 787.173973,2731.7655 787,2731.7815 C787.173973,2731.6225 787.506849,2731.4835 788.590411,2731.2185 L788.590411,2731.2185 Z M790.5915,2731.3935 C790.5405,2731.4725 790.5965,2731.5285 790.7225,2731.6065 C790.5725,2731.5815 790.4255,2731.5525 790.2775,2731.5245 C790.3835,2731.4785 790.4875,2731.4325 790.5915,2731.3935 L790.5915,2731.3935 Z M804.977845,2731.05899 C804.764845,2731.48127 804.735845,2731.5618 804.593845,2731.66386 C804.443845,2731.64232 804.274845,2731.62734 804.065845,2731.63483 L804.112845,2731.97846 C804.100845,2731.98689 804.093845,2731.99064 804.080845,2732 C803.956845,2731.52622 804.041845,2731.42228 804.218845,2731 L804.977845,2731.05899 Z M805,2731.19999 L804.964338,2731.72699 C804.535432,2731.92299 804.283872,2731.89399 804.003396,2731.83499 C803.99183,2731.60199 804.009179,2731.35999 804.065082,2731.12099 L805,2731.19999 Z M808.6135,2731.404 L808.5705,2731.596 C808.5135,2731.587 808.4515,2731.53 808.3865,2731.453 C808.4635,2731.437 808.5395,2731.42 808.6135,2731.404 L808.6135,2731.404 Z M827.906,2737.43547 C827.739,2737.63247 827.447,2737.59647 827.094,2737.43047 C827.385,2737.44947 827.646,2737.45047 827.906,2737.43547 L827.906,2737.43547 Z M727.920642,2751.8835 L727.977708,2751.7845 L726,2751.8945 L726.413732,2751.1055 L728,2751.7045 L728,2751.8465 C727.972358,2751.8595 727.948284,2751.8705 727.920642,2751.8835 L727.920642,2751.8835 Z M699.7015,2747.5445 C699.5565,2747.5255 699.4235,2747.4945 699.2985,2747.4555 C699.4265,2747.4785 699.5625,2747.5105 699.7015,2747.5445 L699.7015,2747.5445 Z M824.515,2737.5415 L824.423,2737.4585 C824.476,2737.4615 824.528,2737.4625 824.577,2737.4635 C824.575,2737.5045 824.56,2737.5355 824.515,2737.5415 L824.515,2737.5415 Z M826.25,2737.391 C826.453,2737.422 826.619,2737.445 826.75,2737.46 C826.694,2737.515 826.623,2737.563 826.56,2737.609 C826.458,2737.54 826.354,2737.467 826.25,2737.391 L826.25,2737.391 Z M725.9745,2751.542 L725.3565,2751.722 C725.3825,2751.319 725.1165,2751.386 725.0255,2751.278 C725.3165,2751.331 725.6365,2751.424 725.9745,2751.542 L725.9745,2751.542 Z M828.511233,2742.195 C828.598233,2742.432 828.815233,2742.782 828.638233,2742.805 L828.294233,2742.496 C828.350233,2742.368 828.419233,2742.262 828.511233,2742.195 L828.511233,2742.195 Z M758.2295,2731.6 C758.4415,2731.558 758.6085,2731.479 758.7705,2731.4 C758.6285,2731.546 758.4395,2731.597 758.2295,2731.6 L758.2295,2731.6 Z M834.749164,2747.35791 C834.749164,2747.35791 834.036789,2746.91083 833.238127,2746.35559 C833.20602,2746.2943 833.176923,2746.23589 833.152341,2746.18037 C833.676589,2746.40463 833.290803,2746.07941 833.187458,2745.80179 L833.152341,2746.0073 C832.838796,2745.80612 832.838796,2745.28477 832.681773,2745.14055 C832.681773,2745.18238 832.686288,2745.23285 832.690803,2745.28477 L832.71087,2745.21482 C832.72592,2745.30712 832.71689,2745.37058 832.700334,2745.42322 C832.704348,2745.53427 832.689298,2745.62152 832.604013,2745.59051 L832.620569,2745.53643 C832.48913,2745.61215 832.262876,2745.52994 832.164548,2745.49317 L832.162542,2745.05835 C832.047157,2745.46865 831.662375,2745.16146 831.265552,2744.74467 C832.212207,2744.95379 831.495318,2744.63363 831.301171,2744.35961 L831.23495,2744.56512 C831.134114,2744.53123 831.055351,2744.4858 830.984114,2744.43677 C830.863211,2744.3012 830.748328,2744.17141 830.644482,2744.06036 C830.549164,2743.90604 830.474415,2743.76327 830.339465,2743.69837 C830.339465,2743.72577 830.345987,2743.75966 830.351003,2743.79211 C830.326421,2743.77841 830.304348,2743.76832 830.286288,2743.76687 C830.015886,2743.29312 829.688796,2743.73515 829.352676,2743.68972 L829.352174,2743.61617 C829.33913,2743.64068 829.31806,2743.65438 829.301003,2743.67385 C829.264883,2743.66376 829.228261,2743.65294 829.19214,2743.6277 C828.600167,2743.49502 828.842977,2743.04506 828.604682,2742.67875 C828.670401,2742.70326 828.747659,2742.75662 828.844482,2742.85902 C828.608696,2742.03409 829.155017,2742.36435 829.077759,2741.94395 C829.109365,2742.04635 829.181104,2742.1985 829.238796,2742.33983 C829.610535,2742.24393 830.311371,2742.01318 830.48495,2741.58918 C830.48495,2741.58918 830.073077,2741.09739 829.629097,2740.50538 C829.9,2740.40515 830.124749,2740.28761 830.234114,2740.14699 C830.234114,2740.14699 829.521739,2739.69992 828.723077,2739.14468 C828.69097,2739.08338 828.661873,2739.02498 828.637291,2738.96945 C829.161538,2739.19371 828.775753,2738.8685 828.672408,2738.59088 L828.637291,2738.79639 C828.323746,2738.59521 828.323746,2738.07386 828.166722,2737.92964 C828.166722,2737.97146 828.171237,2738.02194 828.175753,2738.07386 L828.195819,2738.00391 C828.21087,2738.09621 828.201839,2738.15967 828.185284,2738.21231 C828.189298,2738.32335 828.174247,2738.41061 828.088963,2738.3796 L828.105518,2738.32552 C827.97408,2738.40123 827.747826,2738.31903 827.649498,2738.28225 L827.647993,2737.93685 C827.744816,2737.92603 827.84214,2737.90801 827.944983,2737.87411 C827.612876,2737.79552 828.039799,2737.6549 827.514548,2737.51717 C827.716221,2737.38738 828.249498,2737.3369 828.228428,2737.22008 C828.057358,2737.27489 827.939465,2737.37584 827.640468,2737.22657 C828.205351,2737.10183 828.793813,2737.09389 829.372742,2737.27777 C829.351672,2737.33257 829.294482,2737.38594 829.228261,2737.43641 C829.980769,2737.029 831.110535,2737.135 831.614716,2736.66196 L831.391973,2736.5675 C831.210368,2736.69801 830.841639,2736.71244 830.695151,2736.59129 C831.260033,2736.46727 830.294314,2736.16152 830.891304,2735.96466 C831.713545,2735.75555 832.443478,2736.26248 832.891973,2735.74185 C832.11087,2735.68921 831.056355,2735.41015 830.739298,2735.64089 L831.243478,2735.66181 L830.09214,2736.29132 C830.047993,2736.05696 829.076756,2736.43914 829.095819,2736.05913 C829.49214,2735.99134 829.853846,2735.99567 830.16388,2735.95673 C830.090134,2735.79377 829.103344,2735.86876 828.686455,2735.81973 L829.211706,2735.95745 C828.273579,2736.26752 827.075585,2736.16441 826.166054,2736.40092 C826.881438,2736.10239 825.257023,2736.14061 825.830435,2735.82621 C826.063712,2735.62503 826.44097,2735.93582 826.332609,2735.84857 C826.404348,2735.5111 825.776756,2735.78079 825.592642,2735.53057 C825.496321,2735.74978 824.567224,2735.86876 825.11505,2736.12403 C824.930936,2736.03173 824.612876,2736.12403 824.299833,2736.15575 C824.231605,2736.01226 824.229599,2735.83703 824.179431,2735.66181 C825.136622,2735.30054 826.091304,2734.92918 826.581438,2734.76765 L826.344649,2734.96884 C827.070067,2734.47994 827.801505,2734.98759 828.547492,2734.61767 C828.516388,2734.6905 828.431605,2734.71862 828.570569,2734.73376 C829.49214,2734.80515 829.858361,2734.12155 830.598328,2734.43884 L830.50602,2734.65588 C830.568729,2734.62992 831.006187,2734.45109 830.919398,2734.20881 C830.298829,2734.28885 830.181438,2734.38908 829.626589,2734.32346 C829.853846,2734.12588 830.348495,2733.96075 830.712207,2733.95931 L830.752341,2733.57713 C831.2199,2733.17332 831.695485,2733.76534 832.161037,2733.36225 L831.614716,2733.10554 C831.630268,2733.08895 831.673411,2733.07958 831.708027,2733.0666 C831.460702,2733.10554 831.247492,2733.15601 831.189298,2733.24687 C830.366555,2733.45455 829.944147,2732.90796 829.811706,2732.70173 C829.426421,2732.57842 829.950167,2732.22004 829.903512,2731.98496 C829.28495,2732.065 829.320569,2732.48972 828.700502,2732.56905 C828.537458,2732.51857 828.594147,2732.44141 828.667391,2732.39959 L828.25301,2732.59356 C828.229933,2732.4753 827.168896,2732.38877 827.79699,2732.11836 C827.890803,2732.1299 828.064381,2732.11836 828.198829,2732.13495 C827.333445,2731.85949 825.837458,2731.55663 825.884615,2731.1283 C825.412542,2731.03312 825.54398,2731.24152 824.792475,2731.11388 C824.443813,2731.41674 824.820067,2731.72897 823.999331,2731.93737 L824.646488,2732.0888 C824.779933,2732.03039 824.890803,2731.9554 825.036288,2731.90708 L824.36204,2731.94314 C824.78796,2731.8018 824.712207,2731.63956 824.837625,2731.34824 C825.874582,2731.31867 826.159532,2731.84795 826.685284,2731.98785 C826.363211,2732.21787 825.80786,2732.15153 826.01505,2732.52001 C825.496321,2732.19191 825.440134,2732.83585 824.837625,2732.53371 L824.953512,2732.4342 C824.464883,2732.71975 824.397659,2732.36786 823.993813,2732.62601 C824.024415,2732.55318 823.970234,2732.50847 823.918562,2732.46377 C823.040635,2732.62817 824.184448,2732.6873 823.304013,2733.0428 C822.52291,2732.98728 823.050167,2732.43781 822.83495,2732.2597 C824.145819,2731.76431 822.808361,2731.64388 824.226589,2731.23863 C824.22107,2730.74108 823.664716,2730.67474 822.906689,2730.73819 C823.400836,2730.94947 822.59214,2731.4665 823.248829,2731.8119 C822.115552,2732.06068 822.210368,2733.02766 820.943645,2732.57265 L820.974749,2732.4991 L820.454013,2732.85892 L819.736622,2732.65846 C820.181104,2732.13639 820.728428,2732.3931 821.078094,2732.09024 C820.205184,2731.56673 819.906187,2732.60366 818.899331,2732.56039 C818.061538,2731.96405 819.924247,2732.22076 819.919732,2731.72393 C819.717559,2731.85444 819.168227,2731.59773 819.233445,2731.45207 C820.175585,2731.63956 819.806856,2731.1384 820.857358,2731.41386 C820.345151,2731.58331 820.935619,2731.5761 820.839799,2731.79604 C820.989799,2731.62081 821.973077,2731.5451 822.668395,2731.62874 C822.826923,2731.26387 822.065886,2731.32733 821.626923,2731.16147 C820.795652,2731.56024 819.934281,2730.84564 819.295151,2731.30569 C818.398161,2731.35328 819.227926,2730.95452 819.173746,2730.90981 C818.36806,2730.73819 818.82408,2731.21267 818.567726,2731.29704 C817.351171,2731.57322 817.215217,2730.86871 816.347826,2730.84347 C815.626421,2731.33309 813.869565,2731.16364 812.639465,2731.13263 C812.78796,2730.95957 812.624916,2730.82545 812.550669,2730.66248 C811.818227,2731.34319 812.081605,2731.06629 811.166054,2731.49462 L811.940635,2731.73835 C811.319565,2731.81839 810.8199,2732.29503 810.25,2731.92078 C810.781773,2732.36065 810.070903,2732.40752 809.442308,2732.47098 C809.261706,2732.36209 809.093645,2732.22653 808.938629,2732.07005 C809.420234,2731.88978 809.851171,2731.71023 810.51388,2731.64677 C809.722742,2731.38069 809.234114,2731.64605 808.747492,2731.84435 C808.701338,2731.78522 808.646656,2731.73907 808.604515,2731.67417 L808.567893,2731.91357 C808.472575,2731.94674 808.375753,2731.97414 808.27592,2731.99217 C808.193645,2731.83497 808.11689,2731.74412 808.067726,2732.00371 C807.888127,2732.00948 807.698495,2731.99001 807.479264,2731.90059 L807.912709,2732.35488 L807.707525,2732.54092 C807.635284,2732.5229 807.573077,2732.55679 807.512375,2732.59284 C807.382441,2732.58202 807.267057,2732.54164 807.173746,2732.43781 L807.260033,2732.40968 L807.07893,2732.39598 C807.077425,2732.31234 807.080435,2732.2359 807.055853,2732.3657 C807.062375,2732.37796 807.067893,2732.38589 807.073411,2732.39598 L806.338462,2732.33974 L806.450334,2731.74123 C805.817224,2731.51265 805.038629,2731.95612 805.256856,2732.13495 C804.59214,2731.98063 804.983946,2731.91141 804.887625,2731.63235 C805.262375,2731.44631 806.069064,2730.93073 806.299833,2731.41674 C806.245652,2731.37203 806.105686,2731.35545 806.073579,2731.42828 C807.803846,2731.70085 806.63796,2730.70214 807.501338,2730.54927 C807.051338,2730.50672 806.715719,2730.21757 806.234615,2730.37621 C806.011873,2730.38919 805.103846,2730.6257 804.645819,2730.83915 C805.274916,2730.56874 805.597993,2730.83626 806.091639,2731.04826 C805.673244,2730.99851 805.605017,2731.33454 805.246321,2731.13912 L805.363211,2731.03817 L804.906187,2731.25233 C804.866555,2731.04898 804.458696,2731.03096 804.250502,2730.97255 C804.25602,2730.95452 804.258027,2730.93505 804.264047,2730.91702 C804.256522,2730.93794 804.252508,2730.95092 804.245987,2730.97111 C804.096488,2730.92784 804.055853,2730.86366 804.346823,2730.68916 C803.794482,2730.75983 804.051338,2730.95668 803.719732,2731.08648 C803.450334,2730.84419 803.544649,2731.48308 803.292809,2731.46289 C803.279264,2731.58043 803.265217,2731.71167 803.251672,2731.84579 L802.951672,2731.71023 C803.05,2731.98929 802.438963,2731.87896 802.268395,2731.93521 C801.828428,2731.76863 802.113378,2731.11388 801.366388,2731.48452 L801.420067,2731.52923 C800.992642,2731.67057 800.739298,2731.75493 800.127258,2731.64388 C800.160368,2731.57178 800.32893,2731.51481 800.412709,2731.48741 C799.692308,2731.30497 798.612709,2731.72176 798.052843,2731.49173 C798.070401,2731.41097 798.103512,2731.33237 798.176254,2731.26099 L798.016221,2731.4802 C797.92592,2731.43693 797.847659,2731.37924 797.792475,2731.29127 C797.861706,2730.95668 798.218395,2731.15138 798.236957,2730.77064 C799.556355,2731.27036 799.161538,2730.15339 800.716221,2730.45048 C800.78796,2731.30209 802.02709,2729.95509 802.323077,2730.79444 C801.712542,2730.68411 800.902843,2731.19969 801.010702,2731.28983 C801.572575,2731.24224 802.359699,2731.22421 802.751505,2731.31218 C802.406856,2731.03384 802.517224,2730.56513 802.767559,2730.27381 C801.859532,2730.50961 800.20903,2729.93346 798.923746,2729.85774 L799.067726,2730.37044 C797.957525,2730.73819 799.202676,2729.89091 798.336288,2729.86351 L797.953512,2730.23992 L797.898829,2730.19521 L797.262709,2730.65527 C797.712207,2730.63219 797.505518,2730.26372 797.999666,2730.475 C798.43913,2730.64157 797.981104,2730.85501 797.855184,2731.14705 C797.555184,2730.99562 796.485619,2731.10018 797.145819,2730.75694 L795.973411,2731.2682 C795.981438,2731.07783 796.237793,2730.99274 796.356689,2730.89323 L795.510368,2730.98337 L795.54097,2730.91126 C794.946488,2731.10739 794.147324,2731.13479 793.606522,2731.37708 C793.4801,2731.34247 793.346656,2731.30497 793.204181,2731.26459 L793.405853,2731.55447 C793.113378,2731.66263 792.822408,2731.76719 792.615217,2731.71023 C792.628763,2731.42756 792.810368,2731.09658 793.27291,2730.91126 C793.511204,2731.20762 794.118729,2730.8204 794.566722,2730.79732 C793.988796,2730.61345 793.809197,2730.85934 793.357191,2730.88313 C793.676756,2730.65383 792.756689,2730.58316 792.766221,2730.39279 C792.826421,2730.24641 793.015552,2729.81015 793.595987,2729.99331 C794.462375,2730.01854 793.686288,2730.46202 793.94214,2730.37765 C794.171906,2730.86438 795.150669,2730.29184 795.67592,2730.43029 C795.731104,2730.475 795.55903,2730.53124 795.473746,2730.55936 C795.925753,2730.53557 796.876421,2730.53413 796.946154,2730.19738 L795.815886,2730.44687 C795.570067,2730.34159 796.16505,2730.14329 795.811873,2729.9486 C795.554515,2730.03225 795.246488,2730.07263 794.912375,2729.99619 L794.975084,2729.85053 C794.289799,2729.57796 793.218729,2729.68107 792.429599,2729.81736 C792.290134,2730.40649 792.003177,2730.81679 791.717726,2731.35545 C791.436789,2731.31939 791.15786,2731.27252 790.884448,2731.21267 C791.443311,2731.10451 791.724749,2730.71656 791.421237,2730.46202 L791.215552,2730.59181 L790.78612,2730.23415 C790.670736,2730.72377 790.002508,2730.67113 789.375418,2730.70647 C789.26505,2730.65311 789.160702,2730.59325 789.058361,2730.53268 C789.388963,2730.25867 789.724582,2730.01422 790.165552,2730.31563 L790.099331,2729.9623 C790.632609,2729.9111 791.064548,2730.26804 791.360535,2729.92048 L790.739465,2730.00052 L790.75,2729.81015 C790.310033,2729.83322 789.749164,2730.13176 789.343311,2729.92048 C789.160201,2730.0409 788.982107,2730.19665 788.724749,2730.30914 C788.68913,2730.28246 788.649498,2730.25939 788.615385,2730.23199 L788.576756,2730.36467 C788.391639,2730.42524 788.163378,2730.45913 787.877926,2730.45048 C787.818729,2730.40793 787.763043,2730.38702 787.712876,2730.40433 L787.727926,2730.37044 C787.080769,2731.02086 785.924916,2729.96807 785.435786,2730.25362 C785.153344,2730.90909 786.485786,2730.53052 786.808863,2730.79877 C786.40602,2731.05692 785.975084,2730.69998 786.320736,2731.08504 C786.166722,2731.13552 786.050836,2731.15282 785.956522,2731.15066 C785.907358,2731.1247 785.856689,2731.09081 785.802508,2731.04466 L785.802508,2731.04466 C785.801505,2731.04249 785.8,2731.04249 785.8,2731.04249 C785.771906,2731.01798 785.742308,2730.99274 785.713712,2730.96245 C785.713712,2730.98337 785.716221,2731.00139 785.718227,2731.0187 C785.67408,2731.00428 785.636957,2730.9949 785.600836,2730.98553 C785.47592,2730.85717 785.381605,2730.73747 784.982776,2730.96678 L785.263712,2731.07278 C785.251672,2731.12686 785.252174,2731.19032 785.235619,2731.24224 C785.147826,2731.27901 785.054515,2731.30353 784.957191,2731.31939 C784.88495,2731.30425 784.798161,2731.27973 784.684783,2731.23719 C784.522241,2731.00139 784.429933,2731.20041 784.319565,2731.44847 C784.256355,2731.47515 784.195652,2731.5076 784.141973,2731.55447 C784.132441,2731.63884 784.154013,2731.68427 784.18913,2731.71527 C784.095819,2731.8768 783.978428,2731.99722 783.806856,2731.9453 L783.296656,2730.97039 C782.376087,2730.41154 782.218562,2731.38862 780.885117,2731.39222 C780.587124,2731.22998 780.365385,2730.96173 780.251505,2730.6495 C780.324749,2730.6221 780.397492,2730.5983 780.466221,2730.5846 C780.376421,2730.57234 780.294649,2730.56153 780.217391,2730.55143 C780.170736,2730.3863 780.153177,2730.21036 780.173746,2730.0308 C780.808863,2729.92552 781.13495,2730.12527 781.709866,2729.73732 C782.138796,2729.9212 781.04214,2730.04162 781.512207,2730.10796 C781.11388,2730.18223 780.723077,2730.62859 780.53194,2730.93722 C781.56087,2731.09586 781.116388,2730.43245 781.992308,2730.26804 L782.646488,2730.61345 C783.042308,2730.54566 782.517559,2730.40577 782.49398,2730.2904 C782.975585,2730.19233 783.158194,2730.44471 783.522408,2730.44976 C783.415552,2730.35962 783.169732,2730.25362 783.230936,2730.10796 C783.83495,2730.40938 784.429933,2730.21324 784.990301,2730.77497 C784.666722,2730.50744 785.359532,2730.0921 785.61689,2730.00701 L784.46505,2729.45105 C783.001672,2729.62267 782.090134,2729.36235 780.510368,2729.6342 L780.603679,2729.41571 C778.115385,2728.73933 778.538294,2730.47211 776.409699,2730.4887 C776.351505,2729.94644 775.425418,2730.56369 775.505686,2730.03801 C776.148328,2730.07407 776.017893,2729.86928 775.834783,2729.61762 C775.46204,2729.80294 775.219231,2730.19521 774.499833,2729.99619 C774.765217,2729.72146 774.132609,2729.49287 774.837458,2729.38615 C773.863211,2729.27077 773.327926,2729.32125 772.830268,2729.79717 C771.239967,2730.26155 772.354181,2729.20732 770.774415,2729.47989 L771.006187,2729.27582 L770.02291,2729.35154 L770.346488,2729.6205 L769.18311,2729.94139 C768.468227,2730.2392 769.474582,2730.28174 769.381773,2730.50095 L769.622575,2730.10796 C770.092642,2730.2017 770.755853,2729.8599 770.854181,2730.13825 C770.08612,2730.19738 770.269732,2730.50672 769.964716,2730.6632 L770.696656,2730.50312 L770.93495,2730.79877 C771.661873,2730.80742 772.221237,2730.87376 772.654682,2730.54206 C772.354181,2730.39279 772.164548,2730.82905 771.896154,2730.60623 C772.253344,2730.11301 773.153846,2730.06686 774.028763,2729.90173 C774.051839,2730.01854 774.329766,2730.05244 774.211873,2730.15267 C774.193813,2730.19738 774.040803,2730.19305 773.955518,2730.17358 C774.021739,2730.39279 773.53311,2730.53413 774.356355,2730.66681 C774.102508,2730.96534 773.614381,2731.43188 773.495485,2731.63307 C772.61505,2731.08288 771.845987,2731.47587 770.942475,2731.75565 C770.755351,2731.76431 770.614381,2731.73114 770.588294,2731.59918 C770.358027,2731.67633 769.764047,2731.77152 770.179933,2731.93593 C770.08913,2731.94891 769.997324,2731.959 769.90301,2731.96405 L770.088127,2731.45929 C769.607525,2730.95813 769.956187,2732.23662 769.383278,2731.98568 L769.354682,2731.36554 C769.229264,2731.56817 769.12592,2731.65903 769.03612,2731.67705 C768.854515,2731.42828 768.659365,2731.25666 769.416388,2730.92496 C769.381773,2730.93649 769.051672,2730.99418 768.51388,2731.0836 C768.485284,2731.03889 768.455686,2730.99634 768.424582,2730.95885 C768.535452,2730.96678 768.606187,2730.95813 768.626254,2731.06269 C769.039632,2730.61345 768.431104,2730.50168 767.785953,2730.4649 L767.632943,2730.81968 C767.547659,2730.78867 767.468395,2730.7555 767.391639,2730.72161 C767.410201,2730.48725 767.480936,2730.25146 767.525084,2730.07335 L767.121237,2730.60047 C767.085619,2730.5846 767.048997,2730.56946 767.012876,2730.55504 L766.938127,2729.99619 C766.676756,2730.60479 766.605017,2730.2565 766.342642,2730.19521 L766.923579,2729.75174 L767.135284,2729.43158 L766.026087,2729.79717 C766.17408,2729.62411 765.639298,2729.67603 765.872575,2729.47412 C765.788294,2729.50152 765.391973,2729.57075 765.499833,2729.65944 L765.726087,2729.64862 C765.141137,2730.15267 765.495318,2730.34664 764.525585,2730.73098 C764.93194,2730.93289 765.183779,2730.8716 765.40301,2730.7418 L765.389465,2730.92351 L764.50301,2731.5999 C764.347993,2731.51697 764.197492,2731.43837 764.008863,2731.55735 L764.329431,2731.24584 C763.984281,2731.36122 763.790134,2731.32877 763.638127,2731.24152 C763.695318,2731.04682 763.670736,2730.82905 763.328595,2730.62859 C763.743478,2730.67618 763.797659,2730.72017 764.085117,2730.56369 L763.667224,2730.51393 C764.287291,2730.43461 765.235452,2729.93418 765.221906,2729.62699 C765.032274,2730.06397 764.63495,2729.6342 764.300836,2729.55633 C764.556689,2729.47124 765.100502,2729.23039 764.683612,2729.18064 C764.535619,2729.35514 763.402843,2729.6032 764.206522,2729.77409 C763.865886,2729.88803 763.408361,2730.10147 763.022074,2729.97888 C763.476589,2729.76544 763.177592,2729.61618 763.304515,2729.32413 C762.900669,2729.58156 762.913712,2729.88875 762.848495,2730.03513 C761.693144,2729.66882 761.224582,2728.88643 759.923244,2729.19217 C759.752174,2729.2477 760.712375,2729.05589 760.588462,2729.34649 C759.637793,2729.84693 759.351338,2728.81937 758.527592,2729.02849 L758.758863,2729.5145 C758.50301,2729.59815 757.880936,2729.67819 757.573913,2729.71929 C757.495652,2729.55633 756.616221,2729.22318 757.268395,2729.07103 C755.854181,2728.78836 756.017224,2730.10796 754.396823,2729.95509 C755.146321,2730.082 755.232609,2730.05388 755.822074,2730.04739 C755.422241,2730.21901 755.491472,2730.26083 755.577258,2730.35385 C755.410702,2730.369 755.250167,2730.3964 755.096154,2730.4375 C754.688796,2730.39928 754.341639,2730.43029 754.890468,2730.16637 C754.388294,2730.14546 753.382441,2730.10291 753.149666,2730.30482 L753.589632,2730.47211 C753.061371,2730.4649 752.541639,2730.62138 752.181438,2730.83987 C752.151338,2730.83121 752.126254,2730.83049 752.095652,2730.81968 C751.877425,2730.45264 751.520234,2730.26444 751.104849,2730.16276 C751.398328,2730.16348 751.74097,2730.18944 752.035452,2730.17502 C751.606522,2729.9897 751.854849,2729.83395 752.167391,2729.66593 C752.223579,2729.65295 752.261204,2729.62843 752.287793,2729.60031 C752.323913,2729.58012 752.358027,2729.56065 752.393645,2729.54046 L752.312876,2729.54118 C752.318395,2729.49287 752.300836,2729.4359 752.24214,2729.35658 C751.676756,2729.48061 751.244816,2729.12439 750.880602,2729.11934 C751.240301,2729.81231 749.64097,2729.27943 749.183445,2729.49287 L748.655184,2729.56065 L748.457525,2729.56209 C748.417893,2729.48566 748.47408,2729.3912 748.775084,2729.25347 C748.523746,2729.39047 747.68495,2729.34288 747.762207,2729.56498 L745.847826,2729.57507 C745.788629,2729.54695 745.72893,2729.51162 745.684783,2729.46186 C745.618562,2729.50513 745.607023,2729.54118 745.616054,2729.57579 L737.275251,2729.6205 C737.686622,2729.67531 738.042809,2729.83322 738.466722,2729.91038 C737.8301,2730.37044 739.162542,2729.99331 738.97592,2730.42812 C738.689465,2730.58604 738.270569,2730.53701 738.021237,2730.43101 C737.94097,2730.61994 738.192809,2730.79155 738.23796,2731.00283 L737.958528,2731.41097 C737.192977,2730.67618 736.097826,2731.27324 735.005184,2731.04249 C735.722575,2731.02086 736.449498,2730.96029 737.22408,2730.75838 C735.871572,2730.3315 738.110535,2730.40289 737.685619,2729.85702 L736.949666,2730.03801 L737.012375,2729.89091 L736.114381,2729.9385 C736.298495,2730.19016 736.436957,2730.20603 736.396823,2730.46923 C735.198328,2730.36683 736.019064,2730.15699 735.140134,2729.82457 L733.800167,2729.87216 L733.908528,2729.79284 C733.795652,2729.79933 733.745987,2729.83178 733.707358,2729.87505 L729.193311,2730.03874 C728.371572,2730.24857 729.647324,2730.51321 729.041304,2730.90044 C729.879599,2730.89972 731.075084,2731.11605 731.404682,2730.80958 L731.559699,2731.32877 L730.846823,2731.19825 L731.03796,2731.05115 C727.941639,2732.75797 726.542475,2730.31852 723.634783,2731.87752 C724.020569,2731.03817 723.061873,2732.31811 723.023746,2731.40088 C722.93796,2731.26603 722.853679,2731.16869 722.770401,2731.09802 C722.785452,2731.09297 722.804515,2731.08864 722.81505,2731.08504 L722.883278,2730.24929 C722.275251,2730.39279 722.269732,2730.77136 722.560201,2730.97904 C722.451338,2730.94515 722.344482,2730.95019 722.239632,2730.98913 C722.138796,2730.8853 722.153344,2730.73243 721.894983,2731.01437 C721.897993,2731.07566 721.934114,2731.11244 721.983779,2731.13984 C721.664716,2731.38646 721.361706,2731.80541 721.064214,2731.95756 C721.064214,2732.00227 721.056689,2732.05491 721.022575,2732.12629 L719.971572,2732.01597 C720.599164,2730.85645 719.214548,2732.9779 719.79097,2731.99145 C717.050836,2731.12398 713.474916,2732.00804 710.302341,2731.60783 L710.441806,2731.90564 C709.637124,2731.84867 708.636789,2732.21066 708.026254,2731.73474 C707.415217,2731.25882 706.690803,2732.49117 706.454013,2732.53876 C705.784783,2733.05218 705.176254,2732.03183 705.463712,2732.08447 C704.748328,2732.22653 704.075585,2733.28581 703.082776,2732.8308 C702.743144,2731.84795 700.374247,2733.79562 700.344649,2732.68803 L700.333612,2732.78105 C699.062375,2732.00155 697.862876,2733.32835 696.493311,2732.62241 C696.493311,2732.62241 696.519398,2732.54092 696.565552,2732.46593 L694.236789,2735.27458 C693.80786,2735.09647 693.322241,2734.86284 692.765886,2734.55205 L692.765886,2734.46552 C692.616388,2734.47994 692.617391,2734.65444 692.3199,2734.42225 L693.062876,2734.95658 C692.617391,2735.17579 692.228595,2735.59258 691.635117,2735.65171 C691.509197,2735.55508 691.466054,2735.37625 691.454013,2735.23636 L689.998161,2735.38274 L689.552174,2734.81885 C689.107191,2735.12459 689.310368,2736.31367 688.1199,2735.65099 C688.568896,2736.47664 687.529431,2736.14638 687.676421,2736.56605 C687.616722,2736.46438 687.479766,2736.31151 687.370401,2736.1709 C686.662542,2736.26608 685.329599,2736.49755 685,2736.92155 C685,2736.92155 687.769231,2738.65866 688.513712,2739.54128 C687.517391,2739.31702 688.251338,2739.64223 688.447492,2739.91985 L688.513712,2739.71434 C689.111204,2739.91552 689.111204,2740.43687 689.409197,2740.58109 C689.409197,2740.53927 689.400167,2740.48807 689.39214,2740.43687 L689.354013,2740.5061 C689.325418,2740.41452 689.342475,2740.35034 689.37408,2740.29842 C689.367057,2740.18738 689.394649,2740.0994 689.557191,2740.13041 L689.525585,2740.18521 C689.775418,2740.1095 690.205853,2740.19098 690.392977,2740.22776 L690.39699,2740.6633 C690.838963,2739.83476 693.370903,2741.92737 693.965385,2741.95477 C694.561873,2742.50352 695.302341,2741.81921 696.047324,2742.09394 C697.184114,2742.22806 696.691472,2742.68668 697.170067,2743.05516 C697.033612,2743.04001 696.864548,2742.98233 696.648328,2742.8619 C697.097324,2743.68755 696.05786,2743.35729 696.204849,2743.77697 C696.145151,2743.67529 696.008194,2743.52242 695.898829,2743.38181 C695.19097,2743.47699 693.858027,2743.70846 693.528428,2744.13247 C693.528428,2744.13247 696.297659,2745.86958 697.04214,2746.75219 C696.045819,2746.52793 696.779766,2746.85314 696.97592,2747.13076 L697.04214,2746.92525 C697.564381,2747.1012 697.6301,2747.5216 697.837793,2747.72062 C697.808194,2747.73864 697.787625,2747.75811 697.791639,2747.78047 C697.821237,2747.77109 697.848829,2747.75956 697.876923,2747.74874 C697.896488,2747.76388 697.91505,2747.78119 697.937625,2747.79201 C697.937625,2747.77398 697.93311,2747.7509 697.930602,2747.73071 C698.044482,2747.68961 698.165385,2747.66654 698.379097,2747.77326 C697.814716,2747.89873 697.226254,2747.90594 696.647324,2747.72278 C696.667893,2747.66798 696.725585,2747.61462 696.791304,2747.56342 C696.039298,2747.97084 694.90903,2747.86556 694.404849,2748.33859 L694.628094,2748.43306 C694.809699,2748.30182 695.178428,2748.2874 695.324916,2748.40854 C694.760033,2748.53329 695.725753,2748.83831 695.128763,2749.03589 C694.306522,2749.24428 693.576087,2748.73736 693.128094,2749.25798 C693.909197,2749.31135 694.963211,2749.59041 695.280769,2749.35966 L694.776589,2749.33803 L695.927926,2748.70851 C695.971572,2748.94359 696.943311,2748.56141 696.924247,2748.9407 C696.527926,2749.00849 696.165719,2749.00488 695.855686,2749.04382 C695.929933,2749.20679 696.916221,2749.13179 697.33311,2749.18083 L696.808361,2749.0431 C697.746488,2748.73303 698.944482,2748.83542 699.853512,2748.59891 C699.138629,2748.89744 700.763043,2748.85994 700.18913,2749.17362 C699.955853,2749.37552 699.579097,2749.06401 699.686957,2749.15198 C699.615719,2749.48873 700.243311,2749.21905 700.427425,2749.46999 C700.48612,2749.33586 700.856856,2749.23924 701.009866,2749.1253 L701.33495,2749.52984 C700.560368,2749.82404 699.841973,2750.0995 699.438629,2750.2329 L699.674916,2750.03099 C698.95,2750.51989 698.21806,2750.01225 697.472575,2750.38289 C697.503177,2750.31006 697.588462,2750.28193 697.448997,2750.26607 C696.527926,2750.1954 696.161204,2750.87828 695.421237,2750.56172 L695.513545,2750.34395 C695.450836,2750.36991 695.01388,2750.54946 695.100669,2750.79102 C695.721237,2750.7117 695.838127,2750.61147 696.392977,2750.67637 C696.165719,2750.87467 695.671572,2751.0398 695.307358,2751.04124 L695.267726,2751.42342 C694.800167,2751.82723 694.32408,2751.23522 693.858528,2751.63759 L694.404849,2751.89502 C694.389799,2751.9116 694.346656,2751.92097 694.31204,2751.93323 C694.558863,2751.89502 694.772074,2751.84382 694.830268,2751.75368 C695.65301,2751.54529 696.075418,2752.09259 696.208361,2752.29811 C696.593144,2752.42213 696.0699,2752.77979 696.116054,2753.01559 C696.735117,2752.93555 696.698997,2752.51083 697.319064,2752.43151 C697.482107,2752.48198 697.42592,2752.55914 697.352676,2752.60096 L697.767057,2752.40699 C697.790134,2752.52453 698.851171,2752.61106 698.222575,2752.88147 C698.128763,2752.87065 697.955686,2752.88147 697.821237,2752.86488 C698.686622,2753.14034 700.182107,2753.44392 700.13495,2753.87153 C700.607525,2753.96671 700.476087,2753.75904 701.22709,2753.88667 C701.576254,2753.58309 701.2,2753.27086 702.020736,2753.06246 L701.373077,2752.91175 C701.239632,2752.97016 701.129264,2753.04516 700.983779,2753.09275 L701.657525,2753.05741 C701.231605,2753.19875 701.30786,2753.36027 701.182441,2753.65232 C700.144983,2753.68188 699.860535,2753.1526 699.334783,2753.01271 C699.656856,2752.78268 700.212207,2752.84902 700.004515,2752.47982 C700.523244,2752.80864 700.579933,2752.1647 701.182441,2752.46684 L701.066555,2752.56635 C701.555184,2752.2808 701.622408,2752.63269 702.026254,2752.37382 C701.995652,2752.44665 702.049331,2752.49208 702.101505,2752.53607 C702.979431,2752.37166 701.835619,2752.31253 702.716054,2751.95775 C703.497157,2752.01255 702.9699,2752.56203 703.185117,2752.74086 C701.874247,2753.23625 703.211706,2753.35667 701.793478,2753.76192 C701.798495,2754.25947 702.355351,2754.32509 703.113378,2754.26236 C702.619231,2754.05036 703.427926,2753.53406 702.771237,2753.18865 C703.904515,2752.93988 703.809197,2751.97289 705.076421,2752.4279 L705.045318,2752.50073 L705.566054,2752.14163 L706.283445,2752.34137 C705.838462,2752.86344 705.291639,2752.60745 704.941472,2752.91031 C705.814883,2753.4331 706.11388,2752.3969 707.120736,2752.44016 C707.958528,2753.03578 706.095819,2752.77907 706.099833,2753.27591 C706.302007,2753.14611 706.851338,2753.40282 706.786622,2753.54848 C705.84398,2753.36027 706.212709,2753.86143 705.162207,2753.58597 C705.674415,2753.41724 705.083946,2753.42373 705.179766,2753.20452 C705.030268,2753.37902 704.046488,2753.45474 703.351672,2753.37181 C703.192642,2753.73596 703.954181,2753.67323 704.393144,2753.83908 C705.224415,2753.44031 706.085786,2754.15419 706.724415,2753.69414 C707.621906,2753.64727 706.79214,2754.04603 706.846321,2754.09074 C707.652007,2754.26236 707.195485,2753.78788 707.452341,2753.70279 C708.668395,2753.42733 708.804849,2754.13112 709.671739,2754.15708 C710.393645,2753.66746 712.150502,2753.83691 713.380602,2753.86792 C713.231605,2754.04026 713.394649,2754.17439 713.468896,2754.33807 C714.201839,2753.65736 713.93796,2753.93426 714.854013,2753.50593 L714.079431,2753.2622 C714.700502,2753.18144 715.200167,2752.7048 715.769565,2753.07905 C715.013545,2752.45386 716.770903,2752.62332 717.22893,2752.40987 C717.863043,2752.6363 718.499666,2752.17696 718.846321,2752.56203 L718.760033,2752.59015 L719.681104,2752.66081 L719.569732,2753.2586 C720.202843,2753.48791 720.980936,2753.04371 720.762709,2752.86488 C721.427926,2753.0192 721.035619,2753.08842 721.132441,2753.36821 C720.757191,2753.55353 719.950502,2754.06911 719.720234,2753.58381 C719.774415,2753.62852 719.914381,2753.6451 719.946488,2753.57227 C718.216221,2753.29898 719.381605,2754.29841 718.518227,2754.45128 C718.968227,2754.49383 719.304348,2754.78299 719.78495,2754.62363 C720.008194,2754.61137 720.916221,2754.37485 721.374247,2754.16141 C720.745151,2754.43109 720.421572,2754.16429 719.927926,2753.95229 C720.346823,2754.00204 720.41505,2753.66529 720.773746,2753.86071 L720.656856,2753.96238 L721.11388,2753.74822 C721.182107,2754.10083 722.367057,2753.89604 721.673244,2754.31139 C722.294314,2754.23207 721.886455,2753.99195 722.451839,2753.86792 L721.33612,2753.73596 L721.355184,2753.35667 C721.762542,2753.09852 721.860368,2753.3783 722.309866,2753.35378 L722.271739,2752.92906 L723.067893,2753.29033 C722.969565,2753.01127 723.581104,2753.12087 723.751672,2753.06463 C724.191137,2753.23192 723.906689,2753.88667 724.653679,2753.51531 L724.599498,2753.4706 C725.027425,2753.32927 725.280268,2753.2449 725.892308,2753.35667 C725.859699,2753.42878 725.691137,2753.48502 725.606856,2753.51314 C726.463211,2753.73019 727.836789,2753.08842 728.227592,2753.70856 C728.158361,2754.04387 727.801171,2753.84917 727.78311,2754.22919 C726.463211,2753.73019 726.858027,2754.84644 725.303846,2754.54935 C725.232107,2753.69847 723.992475,2755.04474 723.69699,2754.20539 C724.307023,2754.31644 725.117224,2753.80014 725.008863,2753.71 C724.447492,2753.75832 723.660368,2753.77634 723.268562,2753.68837 C723.613211,2753.96599 723.502341,2754.43542 723.252007,2754.72674 C724.160033,2754.49022 725.811037,2755.0671 727.096321,2755.14281 L726.951839,2754.63012 C728.06204,2754.26236 726.817391,2755.10964 727.683779,2755.13632 L728.066555,2754.75991 L728.121237,2754.80534 L728.756856,2754.34528 C728.30786,2754.36764 728.514548,2754.73684 728.020401,2754.52556 C727.580936,2754.35898 728.038963,2754.14482 728.164381,2753.8535 C728.464883,2754.00493 729.533946,2753.89965 728.873746,2754.24289 L730.046656,2753.73236 C730.038127,2753.922 729.782274,2754.00709 729.662876,2754.10732 L730.509699,2754.01719 L730.478595,2754.0893 C731.160368,2753.86432 732.113043,2753.86143 732.633779,2753.50089 C731.891304,2753.26725 732.325753,2753.1562 732.70903,2753.0329 C732.944314,2753.07977 733.176087,2753.13385 733.400334,2753.19875 C733.427425,2753.498 733.26087,2753.88234 732.747157,2754.0893 C732.508863,2753.79293 731.901338,2754.18015 731.453344,2754.20251 C732.030769,2754.38639 732.21087,2754.14122 732.662375,2754.1167 C732.343311,2754.34673 733.263378,2754.41667 733.253846,2754.60776 C733.193144,2754.75414 733.004013,2755.1904 732.42408,2755.00725 C731.557692,2754.98129 732.333278,2754.53782 732.077425,2754.6229 C731.847659,2754.13617 730.869398,2754.70871 730.344147,2754.57026 C730.288963,2754.52556 730.460535,2754.46931 730.545819,2754.44119 C730.094314,2754.46499 729.143144,2754.46643 729.073913,2754.80246 L730.203679,2754.55368 C730.45,2754.65896 729.855017,2754.85726 730.208194,2755.05195 C730.46505,2754.96759 730.773077,2754.9272 731.107692,2755.00364 L731.044983,2755.15002 C731.729766,2755.42187 732.800836,2755.31948 733.589967,2755.18247 C733.737458,2754.56305 734.046488,2754.13761 734.34699,2753.55353 C734.538629,2753.64583 734.716221,2753.74966 734.883779,2753.86143 C734.501505,2754.02007 734.345485,2754.32581 734.598328,2754.53782 L734.804013,2754.40874 L735.233445,2754.7664 C735.396488,2754.07487 736.662207,2754.46787 737.356522,2754.16141 C736.879431,2754.46643 736.469064,2755.10459 735.854515,2754.6842 L735.920736,2755.03825 C735.387458,2755.08873 734.955518,2754.73251 734.659532,2755.08008 L735.280602,2755.00004 L735.269565,2755.1904 C735.710033,2755.16661 736.270401,2754.86808 736.676756,2755.08008 C737.033946,2754.845 737.369064,2754.47075 738.323746,2754.55584 L738.29214,2754.63012 C738.938796,2753.97897 740.095151,2755.03248 740.584281,2754.74621 C740.866722,2754.09146 739.534281,2754.47003 739.211204,2754.20179 C739.614047,2753.94292 740.044482,2754.30058 739.698829,2753.91551 C740.639465,2753.60472 740.260702,2754.47941 741.037291,2754.03377 L740.597324,2753.86792 C740.945987,2753.56506 741.526421,2753.74822 741.878094,2753.44608 C741.898161,2753.25932 741.797826,2753.23048 741.630268,2753.24706 C741.799331,2753.1526 741.994482,2753.05669 742.234783,2752.98531 C742.460535,2753.02713 742.706856,2753.05958 742.984783,2753.07905 C743.035953,2753.08049 743.073077,2753.06463 743.106187,2753.04444 C743.123244,2753.05814 743.136288,2753.07544 743.151839,2753.09059 L742.984783,2753.07905 C743.049498,2753.09059 743.106187,2753.09635 743.159866,2753.09852 C743.519064,2753.43599 743.68913,2753.95517 743.539632,2754.47436 L743.373077,2754.38639 C743.045987,2754.44335 743.345485,2754.54791 743.47291,2754.64814 C743.463378,2754.6705 743.454348,2754.69285 743.443311,2754.71448 C743.02893,2754.76496 742.837793,2754.55584 742.497659,2754.5508 C742.604515,2754.64093 742.850334,2754.74621 742.788629,2754.89259 C742.185117,2754.59118 741.590134,2754.78731 741.029766,2754.22558 C741.352843,2754.49311 740.660535,2754.90846 740.402676,2754.99355 L741.554515,2755.54951 C743.017893,2755.37717 743.929431,2755.6382 745.509699,2755.36635 L745.415886,2755.58412 C747.904181,2756.26122 747.481773,2754.52844 749.609866,2754.51186 C749.668562,2755.05412 750.594147,2754.43686 750.51388,2754.96254 C749.871237,2754.92576 750.001672,2755.13127 750.184783,2755.38293 C750.558027,2755.19689 750.800836,2754.80534 751.519732,2755.00364 C751.254849,2755.2791 751.887458,2755.50768 751.182107,2755.61368 C752.156856,2755.72978 752.691639,2755.67858 753.189799,2755.20338 C754.7801,2754.739 753.665886,2755.79251 755.245652,2755.52066 L755.013378,2755.72401 L755.996656,2755.6483 L755.673579,2755.38005 L756.836455,2755.05916 C757.551338,2754.76063 756.545485,2754.71809 756.637793,2754.4996 L756.397492,2754.89259 C755.927425,2754.79885 755.263712,2755.14065 755.165886,2754.86231 C755.933445,2754.80246 755.749833,2754.49383 756.055351,2754.33735 L755.323411,2754.49743 L755.085117,2754.20179 C754.358194,2754.19241 753.798829,2754.12679 753.364883,2754.4585 C753.665886,2754.60776 753.855017,2754.1715 754.123913,2754.39432 C753.766722,2754.88754 752.866722,2754.93369 751.990803,2755.09882 C751.968227,2754.98129 751.690301,2754.94812 751.808194,2754.84788 C751.825753,2754.80246 751.979264,2754.80678 752.064047,2754.82697 C751.998328,2754.60776 752.486957,2754.46643 751.663712,2754.33375 C751.959197,2753.98618 752.574749,2753.40859 752.553177,2753.29033 C753.032776,2753.19442 753.707023,2753.15981 754.091806,2753.2824 L754.061204,2753.35523 C754.396823,2753.39489 755.029431,2753.17639 755.301839,2753.27374 C755.33495,2753.31917 755.370067,2753.36172 755.407692,2753.39489 L755.397659,2753.34585 C755.409699,2753.36388 755.426756,2753.37686 755.431773,2753.40138 C755.686622,2753.31629 756.391472,2753.20812 755.673579,2753.0091 L756.169732,2752.92329 C756.527425,2753.26365 756.325251,2753.84917 756.236957,2754.20611 L756.728094,2753.56578 L756.784783,2753.98979 C756.731104,2754.01719 756.671906,2754.04531 756.603679,2754.0756 C756.617726,2754.07055 756.683445,2754.05829 756.791304,2754.03882 L756.823913,2754.28255 C756.88311,2754.14482 756.932274,2754.06045 756.97592,2754.00637 C757.041137,2753.99483 757.115385,2753.98185 757.196154,2753.96887 C757.233278,2753.99123 757.271906,2754.02007 757.317057,2754.04531 C757.13796,2754.33447 757.464548,2754.45489 757.911538,2754.50681 C757.914047,2754.50825 757.915552,2754.51041 757.91806,2754.51186 L757.921572,2754.50825 C758.022408,2754.51979 758.126756,2754.52916 758.234114,2754.53493 L758.386622,2754.18088 C758.94398,2754.38062 759.27709,2754.6979 760.018562,2754.54358 L761.754348,2753.21966 C761.921906,2753.19154 762.092977,2753.16342 762.264047,2753.13673 C762.284615,2753.15548 762.313211,2753.16774 762.341304,2753.18144 L762.289632,2753.49079 L762.444649,2753.21966 C762.746656,2753.30186 763.196656,2753.26653 762.953846,2753.59968 C763.031104,2753.76336 762.775251,2753.84701 762.441137,2753.76913 C762.389967,2753.72515 762.472742,2753.69774 762.420067,2753.65232 C762.325251,2753.87153 762.285117,2754.134 762.691472,2754.37196 C762.276087,2754.32365 762.222408,2754.27966 761.934448,2754.43686 L762.352341,2754.4859 C761.732274,2754.56522 760.784615,2755.06638 760.797659,2755.37356 C760.987793,2754.93658 761.385117,2755.36635 761.719231,2755.44423 C761.462876,2755.5286 760.919565,2755.77016 761.335953,2755.81992 C761.484448,2755.64469 762.617726,2755.39736 761.813545,2755.22646 C762.154181,2755.11253 762.611706,2754.89836 762.997993,2755.02167 C762.543478,2755.23511 762.842475,2755.38438 762.715552,2755.67642 C763.119398,2755.41899 763.105853,2755.1118 763.171572,2754.96542 C764.326923,2755.33102 764.795485,2756.1134 766.096823,2755.80838 C766.267391,2755.75213 765.307692,2755.94466 765.431104,2755.65407 C766.382274,2755.15291 766.668227,2756.18118 767.492475,2755.97135 L767.260702,2755.48605 C767.516555,2755.40168 768.13913,2755.32236 768.445652,2755.28126 C768.523913,2755.44423 769.403344,2755.77737 768.751672,2755.92952 C770.165886,2756.21219 770.002341,2754.89259 771.623244,2755.04474 C770.873244,2754.91855 770.786957,2754.94667 770.197993,2754.95316 C770.826589,2754.68348 770.294314,2754.73612 770.363545,2754.39937 C770.740803,2754.7116 771.958863,2754.43542 771.129097,2754.83418 C771.631271,2754.8551 772.637625,2754.89692 772.870401,2754.69573 L772.430435,2754.52844 C772.902508,2754.53421 773.367057,2754.41018 773.718227,2754.22775 C774.177759,2754.23568 774.638796,2754.21909 775.027592,2754.25803 C775.034615,2754.25659 775.040134,2754.25515 775.046656,2754.25371 C775.272408,2754.32221 775.432441,2754.44407 775.566388,2754.5544 C775.600502,2754.98057 774.65786,2754.79164 773.984114,2754.82553 C774.413043,2755.01013 774.165217,2755.16661 773.852676,2755.3339 C773.796488,2755.34688 773.758863,2755.3714 773.732274,2755.39952 C773.696154,2755.41971 773.661538,2755.43918 773.626421,2755.46009 L773.707191,2755.45937 C773.701171,2755.50696 773.719231,2755.56465 773.777425,2755.64397 C774.342809,2755.51994 774.775251,2755.87616 775.139465,2755.88121 C774.779766,2755.18824 776.378595,2755.72113 776.836622,2755.50768 L777.364883,2755.43918 L777.562542,2755.43774 C777.602174,2755.51417 777.545987,2755.60936 777.244482,2755.74636 C777.495819,2755.61008 778.335117,2755.65767 778.257358,2755.43557 L780.171739,2755.42548 C780.231438,2755.4536 780.291137,2755.48894 780.335284,2755.53869 C780.401505,2755.4947 780.412542,2755.45937 780.404013,2755.42404 L788.744816,2755.37933 C788.332943,2755.32453 787.977258,2755.16661 787.552843,2755.09017 C788.189967,2754.63012 786.857023,2755.00725 787.044147,2754.57243 C787.3301,2754.41379 787.748997,2754.46354 787.998829,2754.56954 C788.091639,2754.34961 787.735953,2754.15492 787.77709,2753.89244 C786.725084,2753.61626 786.564047,2754.66761 785.53612,2754.50753 C785.576756,2754.24433 785.894314,2754.0143 785.221572,2754.04964 L785.392642,2753.99339 C784.314548,2754.2876 784.552341,2753.39777 783.87408,2754.11958 L783.891639,2753.73957 C783.40301,2754.02584 782.451839,2754.028 781.915552,2754.08064 L781.947659,2754.00709 C780.443645,2754.44191 781.103344,2754.09939 779.414214,2754.28183 L780.191806,2753.83836 C779.609365,2753.6552 779.477926,2754.13689 779.059532,2754.08785 C779.084615,2754.02656 779.025418,2753.82394 779.232609,2753.71793 L777.338294,2754.34312 C776.849666,2754.63012 777.438127,2754.6229 777.51388,2754.78443 C777.332776,2755.03104 776.445819,2754.88827 776.399164,2754.65391 C776.518562,2754.55224 776.999666,2754.45489 776.697157,2754.30562 L775.995819,2754.91134 C775.062207,2754.53421 776.705184,2754.11526 777.166221,2753.90181 C776.986622,2753.88667 776.835619,2753.89244 776.694649,2753.90614 C778.008027,2753.61842 779.163378,2753.3545 780.728094,2753.11943 C781.766054,2754.24577 783.209365,2753.28816 784.467057,2753.2348 C784.487625,2753.2622 784.521237,2753.29105 784.584448,2753.32422 C784.598997,2753.28961 784.619565,2753.2622 784.638127,2753.23264 C784.910033,2753.24057 785.171906,2753.29465 785.416722,2753.43382 L785.802508,2752.86993 L785.805518,2752.86993 C786.459197,2753.4944 787.352174,2753.1526 788.278763,2753.18216 C788.279766,2753.19731 788.285284,2753.20884 788.284783,2753.22543 C788.482943,2753.25788 788.688629,2753.27014 788.895318,2753.27374 C789.096488,2753.32999 789.297157,2753.41363 789.495318,2753.54559 C789.817893,2753.29754 789.987458,2753.21966 790.062709,2753.19947 C790.046656,2753.19154 790.028094,2753.17712 790.009532,2753.15548 C790.276923,2753.09635 790.530268,2753.01775 790.76505,2752.91608 C790.898997,2752.9817 790.985786,2753.10356 790.966221,2753.35955 L790.870903,2753.4331 C790.815719,2754.15131 792.012709,2753.0978 792.432609,2753.71938 L792.202341,2752.95069 L792.915217,2753.08049 L792.724582,2753.22831 C792.883612,2753.14034 793.035619,2753.07039 793.186622,2753.00333 C793.851839,2753.11582 794.471906,2753.28456 794.64699,2753.05958 C794.893813,2752.90166 795.196321,2752.75744 795.51689,2752.61683 C796.999833,2752.75167 798.249498,2753.40859 800.127258,2752.40194 C799.741973,2753.24057 800.700669,2751.96136 800.738294,2752.87786 C801.338796,2753.82249 801.866555,2753.05453 802.368227,2752.57573 C802.564381,2752.56563 802.764548,2752.55986 802.961706,2752.55698 C802.998328,2752.57356 803.032441,2752.59159 803.060535,2752.61394 C803.053512,2752.59375 803.05602,2752.57428 803.067057,2752.55554 C803.164883,2752.55481 803.261204,2752.55554 803.354515,2752.55626 C803.35602,2752.51299 803.3199,2752.48198 803.270234,2752.45602 L803.258194,2752.43007 C803.258194,2752.43007 803.245652,2752.43511 803.235117,2752.43944 C803.228094,2752.43656 803.220569,2752.43367 803.213043,2752.43079 C803.118227,2752.33055 803.023913,2752.28368 802.929097,2752.27503 C802.929599,2752.24907 802.947157,2752.21951 802.998328,2752.18057 L803.762876,2752.25989 C803.727258,2752.30099 803.709699,2752.34786 803.717726,2752.40194 C803.562207,2752.70264 803.627926,2752.64279 803.748829,2752.48847 C803.916388,2752.45314 804.098997,2752.4142 804.287124,2752.37382 C806.98311,2753.08554 810.407023,2752.28657 813.459699,2752.67163 L813.320736,2752.3731 C814.124916,2752.43007 815.125753,2752.06808 815.736288,2752.54472 C816.347324,2753.01992 817.071237,2751.78757 817.308528,2751.73998 C817.977258,2751.22656 818.586288,2752.24763 818.298829,2752.19499 C818.722241,2752.11062 819.131605,2751.71042 819.600167,2751.4876 C819.704515,2751.52293 819.808361,2751.55827 819.912709,2751.60514 C820.16204,2752.05077 821.968562,2752.00967 823.389298,2751.83516 L823.376254,2751.94477 C823.386789,2751.90295 823.390301,2751.86978 823.396823,2751.83444 C823.64214,2751.80344 823.871906,2751.76882 824.084114,2751.73205 C825.120569,2751.87627 826.136957,2751.07297 827.269231,2751.65706 C827.269231,2751.65706 827.242642,2751.73854 827.196488,2751.81281 L828.414047,2750.34467 C828.414548,2750.34467 828.41505,2750.34467 828.41505,2750.34395 L828.337793,2750.53287 C828.541973,2750.73478 828.657358,2748.77557 830.917391,2751.16888 L830.917391,2751.25613 C830.995652,2751.24099 830.995151,2751.0672 831.151672,2751.29867 L830.76087,2750.76434 C830.995151,2750.54585 831.199833,2750.12834 831.511371,2750.06921 C831.578094,2750.16656 831.600167,2750.34539 831.607191,2750.48528 L832.372241,2750.3389 L832.606522,2750.90279 C832.840301,2750.59705 832.733946,2749.40725 833.359532,2750.06993 C833.123746,2749.245 833.670067,2749.57526 833.592809,2749.15487 C833.624415,2749.25726 833.696154,2749.40941 833.753846,2749.55075 C834.125585,2749.45484 834.826421,2749.22409 835,2748.80009 C835,2748.80009 834.588127,2748.30831 834.144147,2747.71629 C834.41505,2747.61606 834.639799,2747.49852 834.749164,2747.35791 L834.749164,2747.35791 Z" id="Fill-29-Copy-5" transform="translate(760.000000, 2742.500000) rotate(-180.000000) translate(-760.000000, -2742.500000) "></path>
        </g>
    </g>
</svg>